<?xml version="1.0" standalone="no"?>
<!DOCTYPE svg PUBLIC "-//W3C//DTD SVG 20010904//EN"
 "http://www.w3.org/TR/2001/REC-SVG-20010904/DTD/svg10.dtd">
<svg version="1.0" xmlns="http://www.w3.org/2000/svg"
 width="700.000000pt" height="700.000000pt" viewBox="0 0 700.000000 700.000000"
 preserveAspectRatio="xMidYMid meet">
<metadata>
Created by potrace 1.11, written by Peter Selinger 2001-2013
</metadata>
<g transform="translate(0.000000,700.000000) scale(0.100000,-0.100000)"
fill="#000000" stroke="none">
<path d="M3345 6743 c-53 -4 -294 -32 -331 -39 -15 -3 -60 -12 -99 -20 -38 -9
-81 -18 -94 -20 -14 -3 -28 -7 -31 -9 -4 -2 -20 -6 -36 -9 -45 -8 -302 -93
-351 -116 -24 -11 -45 -20 -48 -20 -13 0 -193 -86 -295 -141 -792 -429 -1379
-1214 -1558 -2085 -28 -135 -31 -152 -38 -204 -3 -25 -7 -55 -9 -66 -19 -117
-27 -495 -12 -651 35 -390 135 -751 303 -1098 47 -97 174 -318 219 -380 152
-210 252 -331 388 -466 48 -47 87 -89 87 -93 0 -4 -3 -5 -7 -3 -7 5 -133 -13
-208 -28 -96 -20 -221 -70 -295 -118 -252 -166 -165 -392 196 -511 28 -9 62
-19 75 -22 71 -15 190 -34 233 -38 43 -3 54 -9 90 -48 91 -99 221 -161 431
-204 11 -2 58 -9 105 -15 113 -15 469 -3 488 16 3 2 17 -2 31 -9 47 -25 150
-60 256 -85 129 -32 444 -35 594 -7 112 21 208 50 275 82 48 23 49 23 85 5
141 -72 351 -109 591 -106 190 3 317 23 449 70 59 22 85 25 197 25 134 0 188
3 264 15 302 46 522 176 546 323 3 21 11 39 18 39 25 1 93 13 129 23 20 5 52
14 70 19 57 15 141 52 197 86 218 133 212 314 -15 450 -60 36 -214 91 -283
101 -20 3 -45 7 -54 10 -32 9 -63 14 -105 16 -24 0 -43 3 -43 6 0 2 26 32 59
66 349 364 622 847 749 1326 22 83 59 248 66 295 29 189 40 319 40 505 1 151
-8 336 -18 385 -2 11 -7 45 -10 75 -11 97 -37 226 -73 360 -239 906 -882 1661
-1745 2049 -273 123 -628 220 -893 246 -33 3 -76 8 -95 12 -37 6 -417 11 -485
6z"/>
</g>
</svg>
